HIERARCHY
ROOT hip
{
  OFFSET 0.0 0.0 0.0
  CHANNELS 6 Xposition Yposition Zposition Zrotation Yrotation Xrotation
  JOINT torso
  {
    OFFSET 0.0 0.0 0.0
    CHANNELS 3 Zrotation Xrotation Yrotation
    JOINT neck
    {
      OFFSET -20.11218299999996 327.95800799999995 66.30578600000035
      CHANNELS 3 Zrotation Xrotation Yrotation
      JOINT head
      {
        OFFSET 18.28939800000012 288.83178699999996 217.81652800000006
        CHANNELS 3 Zrotation Xrotation Yrotation
        End Site
        {
          OFFSET 0.0 0.0 0.0
        }
      }
    }
    JOINT left_collar
    {
      OFFSET -20.11218299999996 327.95800799999995 66.30578600000035
      CHANNELS 3 Zrotation Xrotation Yrotation
      JOINT left_upper_arm
      {
        OFFSET -127.08163400000001 -16.17407199999991 15.44799799999987
        CHANNELS 3 Zrotation Xrotation Yrotation
        JOINT left_forearm
        {
          OFFSET -234.267792 45.78796399999999 109.31286600000021
          CHANNELS 3 Zrotation Xrotation Yrotation
          JOINT left_hand
          {
            OFFSET -259.114014 -33.25433399999997 16.18847699999992
            CHANNELS 3 Zrotation Xrotation Yrotation
            End Site
            {
              OFFSET 0.0 0.0 0.0
            }
          }
        }
      }
    }
    JOINT right_collar
    {
      OFFSET -20.11218299999996 327.95800799999995 66.30578600000035
      CHANNELS 3 Zrotation Xrotation Yrotation
      JOINT right_upper_arm
      {
        OFFSET 164.513184 1.5733030000000099 4.892333999999892
        CHANNELS 3 Zrotation Xrotation Yrotation
        JOINT right_forearm
        {
          OFFSET 260.742027 48.718444999999974 144.35229500000014
          CHANNELS 3 Zrotation Xrotation Yrotation
          JOINT right_hand
          {
            OFFSET 287.85150899999996 -44.57171600000015 13.96813899999961
            CHANNELS 3 Zrotation Xrotation Yrotation
            End Site
            {
              OFFSET 0.0 0.0 0.0
            }
          }
        }
      }
    }
  }
}
MOTION
Frames: 16
Frame Time: 0.01
-257.21494473320575 315.0956102047571 1526.9487595589574 0.41306581016051985 4.488836683377583 -6.103392390499608 -0.46112787381437864 0.21318675818518165 0.10545977950659634 -2.1212903788808792 0.11538566552508885 1.593442935101264 0.0 0.0 0.0 0.262675186996572 -0.9021438618974271 7.251343360104102 2.480122352410415 -15.93830719425955 -64.43373797652679 -25.01021073124992 -3.2590110381148727 -18.37392865151814 0.0 0.0 0.0 1.5426812019280303 0.04504093152420374 -3.9486761320242874 -6.594380450749837 -14.905516161640515 78.28026542274164 27.835384844937906 -3.12551627870211 19.621792789643372 0.0 0.0 0.0
-257.21744678577153 315.1346968075001 1526.9253334903754 0.4135754534450576 4.494793105970162 -6.1114265572362045 -0.4606553994122309 0.2110860436545442 0.1052443591752112 -2.121458687875886 0.11263078337384762 1.5937670031295093 0.0 0.0 0.0 0.26889737942553366 -0.9033615171441227 7.263594714400251 2.435964284957548 -15.99180109949683 -64.40110503357349 -25.02968534826525 -3.2630736693336893 -18.370189812336925 0.0 0.0 0.0 1.5540919805324116 0.04547706453437086 -3.965202403325765 -6.584413658838417 -14.94234042770839 78.30130575726334 27.858350517230363 -3.1278281529489136 19.591867126834355 0.0 0.0 0.0
-257.22685913899136 315.1719809598714 1526.9054893240445 0.4128696686894074 4.5016265227034165 -6.121180517830807 -0.4601294806215133 0.20830470488419567 0.10497907917375189 -2.1224209215095744 0.108961022035933 1.5947563423117073 0.0 0.0 0.0 0.27632946150890414 -0.9047770949464433 7.277911883113241 2.3931436653221243 -16.04429494499113 -64.37093949339447 -25.047208082179047 -3.2666689795447303 -18.36621147728322 0.0 0.0 0.0 1.564600674633954 0.04582455734069407 -3.9779634366424257 -6.574007965603647 -14.97853632657827 78.3193984877619 27.879026465146875 -3.129776066413774 19.56362413750463 0.0 0.0 0.0
-257.24298660203146 315.207476989766 1526.888829392233 0.4110381889974799 4.509376981716827 -6.1325290401997234 -0.4595838367448278 0.2047683820357592 0.1046664077240578 -2.124201293286589 0.10447068705965352 1.596422544246751 0.0 0.0 0.0 0.28489842114246106 -0.9063895687245913 7.294248114281872 2.351701509019133 -16.095837419881008 -64.34346234809789 -25.062828906312667 -3.269792325028101 -18.361827065294936 0.0 0.0 0.0 1.5740355887884223 0.046074465602157735 -3.9866700888116604 -6.562841577097701 -15.014519719779143 78.33392503859378 27.897441767772516 -3.13138099821754 19.53718883874244 0.0 0.0 0.0
-257.2655757418696 315.24124963793486 1526.8748861121928 0.408187069598347 4.51805146670709 -6.145282189800686 -0.4590500458542947 0.20044057980110835 0.10431056362474439 -2.126795867130742 0.09926103796320034 1.5987554488155635 0.0 0.0 0.0 0.2944957350482931 -0.9081895256938293 7.312475288091572 2.311683723591017 -16.14645160961067 -64.31885476754778 -25.076617388900868 -3.2724457274117342 -18.356893627215452 0.0 0.0 0.0 1.58223857052222 0.046219625409675585 -3.991103716907729 -6.55061291844167 -15.050674486839235 78.34429902231783 27.913633743593927 -3.1326634090432797 19.51266314507747 0.0 0.0 0.0
-257.29431560455754 315.2734132285538 1526.86312878365 0.4044367788816633 4.527621691605451 -6.159186508057728 -0.45855670139886223 0.19532451610977536 0.1039174559807854 -2.1301723420073007 0.09344235074918253 1.6017228287776801 0.0 0.0 0.0 0.3049807412199119 -0.9101588328092447 7.332383457094678 2.273139486236032 -16.19613571314128 -64.29725466796796 -25.088660595406843 -3.2746378831124843 -18.351296510830526 0.0 0.0 0.0 1.589067733513608 0.04625492199441342 -3.9911222262620356 -6.53704571396186 -15.087346515038025 78.34997775002199 27.927648045086688 -3.13364300125413 19.49012356833525 0.0 0.0 0.0
-257.32883995487765 315.304129010132 1526.852972650239 0.3999199370397721 4.538023353691247 -6.1739285571488285 -0.45812877451767714 0.189463289484395 0.10349456798688206 -2.134270758762788 0.08713573639998463 1.6052707869088954 0.0 0.0 0.0 0.31618510612467104 -0.9122706176279959 7.35368340436531 2.2361190140064915 -16.24486511490401 -64.27875421852467 -25.099060678183434 -3.276383989765651 -18.344952930526475 0.0 0.0 0.0 1.5943999403413627 0.04617750196159744 -3.98666431582527 -6.521893580714975 -15.124838852233465 78.3504736802121 27.939539140222763 -3.1343386226067964 19.46961943739633 0.0 0.0 0.0
-257.36873118401456 315.33360069230577 1526.8437901659452 0.39477871021411876 4.549156964051154 -6.189141007751796 -0.45778721306827946 0.18293831530864235 0.10305078772425667 -2.1390051646975077 0.08047445773069649 1.609324911494655 0.0 0.0 0.0 0.3279182386959922 -0.9144895991525183 7.376012349445963 2.200670878405525 -16.292595567747114 -64.26339825466579 -25.107932226941514 -3.2777053966748575 -18.337814358733812 0.0 0.0 0.0 1.5981330094146882 0.045986911460043634 -3.9777515219549664 -6.504944038653799 -15.163408104756009 78.34536545252905 27.949371080996727 -3.134768299194277 19.451171713608044 0.0 0.0 0.0
-257.41352600649304 315.362068250654 1526.834924362458 0.3891618764606082 4.560890315512085 -6.204411363442592 -0.45754879688717953 0.17586604495790747 0.10259619046775774 -2.1442662423552425 0.07360449299200295 1.6137922138248788 0.0 0.0 0.0 0.3399734841047442 -0.9167727937089125 7.398942835854571 2.1668390442437633 -16.33926720359092 -64.25118356944105 -25.11539946140339 -3.278629093197006 -18.329867698011867 0.0 0.0 0.0 1.6001876230632992 0.04568514507122699 -3.9644877000357766 -6.486021855210505 -15.20326209973332 78.33430811043992 27.957218433525288 -3.1349493763448555 19.43477246566095 0.0 0.0 0.0
-257.46272303238396 315.38980011424235 1526.825704176978 0.38322159405043754 4.573062576623449 -6.21929330879438 -0.4574262550917058 0.16839305149392736 0.10214177847189986 -2.1499248786179703 0.06668411827211988 1.6185638468389754 0.0 0.0 0.0 0.3521349162182101 -0.9190706079296375 7.4219947271891025 2.1346598261688317 -16.384809077457962 -64.2420590707386 -25.12159334996897 -3.2791870539938506 -18.321135228823643 0.0 0.0 0.0 1.6005089221790811 0.04527659420872576 -3.947055663256985 -6.464991665816214 -15.24455876405511 78.31704211373717 27.963167225118834 -3.1348987401405437 19.420385050671648 0.0 0.0 0.0
-257.5157922563668 315.4170838903441 1526.8154615753615 0.37710992272325283 4.585489916057375 -6.233320535558893 -0.4574286350587869 0.1606896410278112 0.1016991854974156 -2.155836616613052 0.05988232260218598 1.6235185757919277 0.0 0.0 0.0 0.3641845345604652 -0.921328314365697 7.444650116098675 2.1041589550978395 -16.429143963171985 -64.23592681275288 -25.12664873824401 -3.2794154642319695 -18.31167336287813 0.0 0.0 0.0 1.599067774749176 0.044767889297317016 -3.925710818971744 -6.441759840068071 -15.287406109242424 78.2934007710102 27.967315750708053 -3.134633087105999 19.407945027959183 0.0 0.0 0.0
-257.572186450849 315.4442158160024 1526.8035502933005 0.37097517386254264 4.597972466158712 -6.246022740846264 -0.45756189343027875 0.15294222852001205 0.10128035420592496 -2.1618468934419184 0.05337592934868497 1.6285269376752503 0.0 0.0 0.0 0.37590965203331883 -0.9234878848266896 7.46637080548686 2.0753489345153433 -16.472193143766162 -64.23264392182848 -25.130701571830098 -3.279353852503013 -18.30157027358815 0.0 0.0 0.0 1.5958617006494475 0.04416763680119156 -3.900771807930967 -6.416275591228401 -15.3318631598193 78.2633157749458 27.96977507362506 -3.134169205921583 19.397361814534477 0.0 0.0 0.0
-257.6313543863427 315.4714891533378 1526.7893660186428 0.3649581952996283 4.610302329188292 -6.256943303550808 -0.4578296574646167 0.14534479902243558 0.10089719493754105 -2.1677969179548384 0.047345373687728086 1.6334559836473381 0.0 0.0 0.0 0.3871102278041889 -0.925490132208747 7.486617849907645 2.048226848490189 -16.513880965168045 -64.23202543340633 -25.13388629827806 -3.2790441645786905 -18.290942526450532 0.0 0.0 0.0 1.5909154253665003 0.04348606009618932 -3.8726083631729287 -6.388531352538973 -15.377941622826622 78.22682058972428 27.970669057654664 -3.1335242342215293 19.38852108343308 0.0 0.0 0.0
-257.69275572796096 315.49918176232336 1526.7723678508544 0.3591887298308308 4.622272217585365 -6.2656579337785265 -0.45823408131383137 0.13808985788053604 0.10056123435681237 -2.1735299823617398 0.04196917740010336 1.6381744462007042 0.0 0.0 0.0 0.3976058550138865 -0.9272770835016867 7.504872445341526 2.0227727628916066 -16.554138942559888 -64.23384803821685 -25.136333530904075 -3.278529815814525 -18.2799308858292 0.0 0.0 0.0 1.584281022167788 0.04273456190081617 -3.8416268629438526 -6.358562466909533 -15.42560806711265 78.18405151387702 27.970133788674097 -3.1327158578842904 19.381287907049217 0.0 0.0 0.0
-257.75587737202744 315.5275430917169 1526.7521008965523 0.35378202242636525 4.633684204976092 -6.271793362115225 -0.45877669877101107 0.13135935248363337 0.10028326228410796 -2.178897928930052 0.037417267114063464 1.64255811001911 0.0 0.0 0.0 0.40724206418256537 -0.9287944752265169 7.520657229627937 1.9989488383867717 -16.592909226817213 -64.23785470490269 -25.138168049520523 -3.277854762431678 -18.268695519842833 0.0 0.0 0.0 1.5760375837158673 0.041925234960781065 -3.808254348420765 -6.3264462552989915 -15.474786369533291 78.13524632574439 27.968316293950206 -3.131762430588255 19.37551064571277 0.0 0.0 0.0
-257.8202508949572 315.55678083045643 1526.7282198802027 0.34883588487836487 4.6443579620944515 -6.275044917042954 -0.4594591563550599 0.12531611327223116 0.10007298507780772 -2.1837674155103746 0.0338433941575445 1.6464950983466422 0.0 0.0 0.0 0.41589557026132906 -0.9299942301254666 7.533556825174775 1.9766992441585511 -16.63014726081321 -64.24376010381447 -25.139507198644445 -3.2770626311037234 -18.25741085485727 0.0 0.0 0.0 1.56629033828641 0.04107035588121155 -3.772922082127445 -6.292300540394905 -15.525360203712173 78.08074051798972 27.965372542017548 -3.130683005734374 19.371025562238977 0.0 0.0 0.0
